<svg width="20" height="750" viewBox="0 0 20 750" fill="none" xmlns="http://www.w3.org/2000/svg">
<path d="M18.15 11.4C18.15 5.8 15.2 2.6 9.8 2.6C4.4 2.6 1.45 5.8 1.45 11.4V17.8C1.45 22.95 3.5 25.8 7.55 25.8C10 25.8 11.7 24.7 12.65 22.7V29.1C12.65 32.45 11.55 33.4 9.6 33.4C7.85 33.4 6.75 32.45 6.75 29.95V28.7H1.55V29.6C1.55 35.2 4.35 38.4 9.75 38.4C15.45 38.4 18.15 35.2 18.15 29.3V11.4ZM9.8 20.8C8.05 20.8 6.95 19.85 6.95 17.35V11.05C6.95 8.55 8.05 7.65 9.8 7.65C11.55 7.65 12.65 8.55 12.65 11.05V17.35C12.65 19.85 11.55 20.8 9.8 20.8Z" fill="url(#paint0_linear_1612_4864)"/>
<path d="M7.05 61.05C7.05 58.55 8.15 57.6 9.9 57.6C11.65 57.6 12.75 58.55 12.75 61.05V79.95C12.75 82.45 11.65 83.4 9.9 83.4C8.15 83.4 7.05 82.45 7.05 79.95V61.05ZM1.55 79.6C1.55 85.2 4.5 88.4 9.9 88.4C15.3 88.4 18.25 85.2 18.25 79.6V61.4C18.25 55.8 15.3 52.6 9.9 52.6C4.5 52.6 1.55 55.8 1.55 61.4V79.6Z" fill="url(#paint1_linear_1612_4864)"/>
<path d="M5.4 111.3H9.65V138H15.15V103H11.45C10.6 105.35 9.65 107.4 5.4 107.4V111.3Z" fill="url(#paint2_linear_1612_4864)"/>
<path d="M12.9 161.6C12.9 171.7 2 173.4 2 183.7V188H17.9V183H7.5C7.45 182.75 7.45 182.5 7.45 182.25C7.45 176.5 18.4 172.4 18.4 161.4C18.4 155.8 15.6 152.6 10.2 152.6C4.8 152.6 2 155.8 2 161.4V164.8H7.2V161.05C7.2 158.55 8.3 157.6 10.05 157.6C11.8 157.6 12.9 158.45 12.9 161.6Z" fill="url(#paint3_linear_1612_4864)"/>
<path d="M12.6 213.55C12.6 216.35 11.35 217.25 9.3 217.25H7.15V222.25H9C11.5 222.25 12.6 223.45 12.6 226.7V229.45C12.6 232.55 11.5 233.4 9.75 233.4C8 233.4 6.9 232.45 6.9 229.95V226.7H1.7V229.6C1.7 235.2 4.5 238.4 9.9 238.4C15.3 238.4 18.1 235.2 18.1 229.6V226.85C18.1 223.3 17 220.7 14.25 219.5C16.9 218.4 18.1 216.05 18.1 212.3V211.4C18.1 205.8 15.3 202.6 9.9 202.6C4.5 202.6 1.7 205.8 1.7 211.4V213.3H6.9V211.05C6.9 208.55 8 207.6 9.75 207.6C11.5 207.6 12.6 208.45 12.6 211.6V213.55Z" fill="url(#paint4_linear_1612_4864)"/>
<path d="M0.7 281.65H11.3V288H16.7V281.65H19.3V276.65H16.7V253H10.7L0.7 276.65V281.65ZM5.75 276.65L11.3 263.5V276.65H5.75Z" fill="url(#paint5_linear_1612_4864)"/>
<path d="M1.75 326.7V329.6C1.75 335.2 4.55 338.4 9.95 338.4C15.35 338.4 18.15 335.2 18.15 329.6V321.8C18.15 316.65 16.1 313.8 12.05 313.8C9.85 313.8 8.25 314.7 7.25 316.35L7.7 308H17.25V303H2.75L1.75 323.3H6.95V322.25C6.95 319.75 8.05 318.8 9.8 318.8C11.55 318.8 12.65 319.75 12.65 322.25V329.95C12.65 332.45 11.55 333.35 9.8 333.35C8.05 333.35 6.95 332.45 6.95 329.95V326.7H1.75Z" fill="url(#paint6_linear_1612_4864)"/>
<path d="M1.65 379.6C1.65 385.2 4.6 388.4 10 388.4C15.4 388.4 18.35 385.2 18.35 379.6V373.2C18.35 368.05 16.3 365.2 12.25 365.2C9.8 365.2 8.1 366.3 7.15 368.3V361.9C7.15 358.55 8.25 357.6 10.2 357.6C11.95 357.6 13.05 358.55 13.05 361.05V362.3H18.25V361.4C18.25 355.8 15.45 352.6 10.05 352.6C4.35 352.6 1.65 355.8 1.65 361.7V379.6ZM10 370.2C11.75 370.2 12.85 371.15 12.85 373.65V379.95C12.85 382.45 11.75 383.35 10 383.35C8.25 383.35 7.15 382.45 7.15 379.95V373.65C7.15 371.15 8.25 370.2 10 370.2Z" fill="url(#paint7_linear_1612_4864)"/>
<path d="M1.65 403V408H12.6L4.55 438H10.05L18.15 407.8V403H1.65Z" fill="url(#paint8_linear_1612_4864)"/>
<path d="M18.5 479.6V476.85C18.5 473.5 17.5 470.9 15.1 469.55C17.35 468.3 18.5 465.95 18.5 462.5V461.4C18.5 455.8 15.45 452.6 9.9 452.6C4.35 452.6 1.3 455.8 1.3 461.4V462.5C1.3 465.95 2.4 468.3 4.7 469.55C2.3 470.9 1.3 473.5 1.3 476.85V479.6C1.3 485.2 4.35 488.4 9.9 488.4C15.45 488.4 18.5 485.2 18.5 479.6ZM6.8 479.45V476.2C6.8 473.45 7.95 472.25 9.9 472.25C11.85 472.25 13 473.45 13 476.2V479.45C12.95 482.55 11.65 483.4 9.9 483.4C8.15 483.4 6.8 482.55 6.8 479.45ZM6.8 461.6C6.8 458.45 8.15 457.6 9.9 457.6C11.65 457.6 13 458.45 13 461.6V463.55C13 466.35 11.65 467.25 9.9 467.25C8.1 467.25 6.8 466.35 6.8 463.55V461.6Z" fill="url(#paint9_linear_1612_4864)"/>
<path d="M18.15 511.4C18.15 505.8 15.2 502.6 9.8 502.6C4.4 502.6 1.45 505.8 1.45 511.4V517.8C1.45 522.95 3.5 525.8 7.55 525.8C10 525.8 11.7 524.7 12.65 522.7V529.1C12.65 532.45 11.55 533.4 9.6 533.4C7.85 533.4 6.75 532.45 6.75 529.95V528.7H1.55V529.6C1.55 535.2 4.35 538.4 9.75 538.4C15.45 538.4 18.15 535.2 18.15 529.3V511.4ZM9.8 520.8C8.05 520.8 6.95 519.85 6.95 517.35V511.05C6.95 508.55 8.05 507.65 9.8 507.65C11.55 507.65 12.65 508.55 12.65 511.05V517.35C12.65 519.85 11.55 520.8 9.8 520.8Z" fill="url(#paint10_linear_1612_4864)"/>
<path d="M7.05 561.05C7.05 558.55 8.15 557.6 9.9 557.6C11.65 557.6 12.75 558.55 12.75 561.05V579.95C12.75 582.45 11.65 583.4 9.9 583.4C8.15 583.4 7.05 582.45 7.05 579.95V561.05ZM1.55 579.6C1.55 585.2 4.5 588.4 9.9 588.4C15.3 588.4 18.25 585.2 18.25 579.6V561.4C18.25 555.8 15.3 552.6 9.9 552.6C4.5 552.6 1.55 555.8 1.55 561.4V579.6Z" fill="url(#paint11_linear_1612_4864)"/>
<path d="M5.4 611.3H9.65V638H15.15V603H11.45C10.6 605.35 9.65 607.4 5.4 607.4V611.3Z" fill="url(#paint12_linear_1612_4864)"/>
<path d="M7 682.7V688H12.3V682.7H7Z" fill="url(#paint13_linear_1612_4864)"/>
<path d="M9.1 738L7.65 743H9.9L12.3 737.45V732.7H7V738H9.1Z" fill="url(#paint14_linear_1612_4864)"/>
<defs>
<linearGradient id="paint0_linear_1612_4864" x1="10" y1="0" x2="10" y2="50" gradientUnits="userSpaceOnUse">
<stop stop-color="white"/>
<stop offset="1" stop-color="#EBEBEB"/>
</linearGradient>
<linearGradient id="paint1_linear_1612_4864" x1="10" y1="50" x2="10" y2="100" gradientUnits="userSpaceOnUse">
<stop stop-color="white"/>
<stop offset="1" stop-color="#EBEBEB"/>
</linearGradient>
<linearGradient id="paint2_linear_1612_4864" x1="10" y1="100" x2="10" y2="150" gradientUnits="userSpaceOnUse">
<stop stop-color="white"/>
<stop offset="1" stop-color="#EBEBEB"/>
</linearGradient>
<linearGradient id="paint3_linear_1612_4864" x1="10" y1="150" x2="10" y2="200" gradientUnits="userSpaceOnUse">
<stop stop-color="white"/>
<stop offset="1" stop-color="#EBEBEB"/>
</linearGradient>
<linearGradient id="paint4_linear_1612_4864" x1="10" y1="200" x2="10" y2="250" gradientUnits="userSpaceOnUse">
<stop stop-color="white"/>
<stop offset="1" stop-color="#EBEBEB"/>
</linearGradient>
<linearGradient id="paint5_linear_1612_4864" x1="10" y1="250" x2="10" y2="300" gradientUnits="userSpaceOnUse">
<stop stop-color="white"/>
<stop offset="1" stop-color="#EBEBEB"/>
</linearGradient>
<linearGradient id="paint6_linear_1612_4864" x1="10" y1="300" x2="10" y2="350" gradientUnits="userSpaceOnUse">
<stop stop-color="white"/>
<stop offset="1" stop-color="#EBEBEB"/>
</linearGradient>
<linearGradient id="paint7_linear_1612_4864" x1="10" y1="350" x2="10" y2="400" gradientUnits="userSpaceOnUse">
<stop stop-color="white"/>
<stop offset="1" stop-color="#EBEBEB"/>
</linearGradient>
<linearGradient id="paint8_linear_1612_4864" x1="10" y1="400" x2="10" y2="450" gradientUnits="userSpaceOnUse">
<stop stop-color="white"/>
<stop offset="1" stop-color="#EBEBEB"/>
</linearGradient>
<linearGradient id="paint9_linear_1612_4864" x1="10" y1="450" x2="10" y2="500" gradientUnits="userSpaceOnUse">
<stop stop-color="white"/>
<stop offset="1" stop-color="#EBEBEB"/>
</linearGradient>
<linearGradient id="paint10_linear_1612_4864" x1="10" y1="500" x2="10" y2="550" gradientUnits="userSpaceOnUse">
<stop stop-color="white"/>
<stop offset="1" stop-color="#EBEBEB"/>
</linearGradient>
<linearGradient id="paint11_linear_1612_4864" x1="10" y1="550" x2="10" y2="600" gradientUnits="userSpaceOnUse">
<stop stop-color="white"/>
<stop offset="1" stop-color="#EBEBEB"/>
</linearGradient>
<linearGradient id="paint12_linear_1612_4864" x1="10" y1="600" x2="10" y2="650" gradientUnits="userSpaceOnUse">
<stop stop-color="white"/>
<stop offset="1" stop-color="#EBEBEB"/>
</linearGradient>
<linearGradient id="paint13_linear_1612_4864" x1="10" y1="650" x2="10" y2="700" gradientUnits="userSpaceOnUse">
<stop stop-color="white"/>
<stop offset="1" stop-color="#EBEBEB"/>
</linearGradient>
<linearGradient id="paint14_linear_1612_4864" x1="10" y1="700" x2="10" y2="750" gradientUnits="userSpaceOnUse">
<stop stop-color="white"/>
<stop offset="1" stop-color="#EBEBEB"/>
</linearGradient>
</defs>
</svg>
