<svg width="40" height="36" viewBox="0 0 40 36" fill="none" xmlns="http://www.w3.org/2000/svg">
<path d="M39.62 12.24V16.39H34.81L34.3 19.27H39.6V23.42H33.5L31.13 35.94H24.83L22.51 23.42H17.16L14.84 35.94H8.33L5.93 23.42H0V19.27H5.13L4.61 16.39H0V12.24H3.83L1.51 0H7.23L9.23 12.24H14.84L17.24 0H23L25.23 12.24H30.55L32.49 0H37.94L35.62 12.24H39.62ZM10.42 19.24H13.55L14.09 16.36H9.96L10.42 19.24ZM11.42 25.1C11.6295 26.4234 11.7431 27.7602 11.76 29.1H11.88C11.9575 27.7361 12.1313 26.3794 12.4 25.04L12.69 23.41H11.13L11.42 25.1ZM17.91 19.24H21.72L21.23 16.39H18.48L17.91 19.24ZM19.79 7.84C19.7007 9.31742 19.5136 10.7873 19.23 12.24H20.43C20.1437 10.7984 19.9632 9.33788 19.89 7.87L19.79 7.84ZM26.41 19.24H29.34L29.83 16.36H25.98L26.41 19.24ZM27.53 25.32C27.65 25.97 27.78 27.2 27.92 29.03H28C28.06 27.89 28.19 26.6 28.39 25.17L28.7 23.39H27.23L27.53 25.32Z" fill="url(#paint0_linear_1612_4881)"/>
<defs>
<linearGradient id="paint0_linear_1612_4881" x1="19.81" y1="0" x2="19.81" y2="35.94" gradientUnits="userSpaceOnUse">
<stop stop-color="white"/>
<stop offset="1" stop-color="#EBEBEB"/>
</linearGradient>
</defs>
</svg>
