<svg width="28" height="1050" viewBox="0 0 28 1050" fill="none" xmlns="http://www.w3.org/2000/svg">
<path d="M25.41 15.76C25.41 7.92 21.28 3.44 13.72 3.44C6.16 3.44 2.03 7.92 2.03 15.76V24.72C2.03 31.93 4.9 35.92 10.57 35.92C14 35.92 16.38 34.38 17.71 31.58V40.54C17.71 45.23 16.17 46.56 13.44 46.56C10.99 46.56 9.45 45.23 9.45 41.73V39.98H2.17V41.24C2.17 49.08 6.09 53.56 13.65 53.56C21.63 53.56 25.41 49.08 25.41 40.82V15.76ZM13.72 28.92C11.27 28.92 9.73 27.59 9.73 24.09V15.27C9.73 11.77 11.27 10.51 13.72 10.51C16.17 10.51 17.71 11.77 17.71 15.27V24.09C17.71 27.59 16.17 28.92 13.72 28.92Z" fill="url(#paint0_linear_1612_4848)"/>
<path d="M9.87 85.27C9.87 81.77 11.41 80.44 13.86 80.44C16.31 80.44 17.85 81.77 17.85 85.27V111.73C17.85 115.23 16.31 116.56 13.86 116.56C11.41 116.56 9.87 115.23 9.87 111.73V85.27ZM2.17 111.24C2.17 119.08 6.3 123.56 13.86 123.56C21.42 123.56 25.55 119.08 25.55 111.24V85.76C25.55 77.92 21.42 73.44 13.86 73.44C6.3 73.44 2.17 77.92 2.17 85.76V111.24Z" fill="url(#paint1_linear_1612_4848)"/>
<path d="M7.56 155.62H13.51V193H21.21V144H16.03C14.84 147.29 13.51 150.16 7.56 150.16V155.62Z" fill="url(#paint2_linear_1612_4848)"/>
<path d="M18.06 226.04C18.06 240.18 2.8 242.56 2.8 256.98V263H25.06V256H10.5C10.43 255.65 10.43 255.3 10.43 254.95C10.43 246.9 25.76 241.16 25.76 225.76C25.76 217.92 21.84 213.44 14.28 213.44C6.72 213.44 2.8 217.92 2.8 225.76V230.52H10.08V225.27C10.08 221.77 11.62 220.44 14.07 220.44C16.52 220.44 18.06 221.63 18.06 226.04Z" fill="url(#paint3_linear_1612_4848)"/>
<path d="M17.64 298.77C17.64 302.69 15.89 303.95 13.02 303.95H10.01V310.95H12.6C16.1 310.95 17.64 312.63 17.64 317.18V321.03C17.64 325.37 16.1 326.56 13.65 326.56C11.2 326.56 9.66 325.23 9.66 321.73V317.18H2.38V321.24C2.38 329.08 6.3 333.56 13.86 333.56C21.42 333.56 25.34 329.08 25.34 321.24V317.39C25.34 312.42 23.8 308.78 19.95 307.1C23.66 305.56 25.34 302.27 25.34 297.02V295.76C25.34 287.92 21.42 283.44 13.86 283.44C6.3 283.44 2.38 287.92 2.38 295.76V298.42H9.66V295.27C9.66 291.77 11.2 290.44 13.65 290.44C16.1 290.44 17.64 291.63 17.64 296.04V298.77Z" fill="url(#paint4_linear_1612_4848)"/>
<path d="M0.98 394.11H15.82V403H23.38V394.11H27.02V387.11H23.38V354H14.98L0.98 387.11V394.11ZM8.05 387.11L15.82 368.7V387.11H8.05Z" fill="url(#paint5_linear_1612_4848)"/>
<path d="M2.45 457.18V461.24C2.45 469.08 6.37 473.56 13.93 473.56C21.49 473.56 25.41 469.08 25.41 461.24V450.32C25.41 443.11 22.54 439.12 16.87 439.12C13.79 439.12 11.55 440.38 10.15 442.69L10.78 431H24.15V424H3.85L2.45 452.42H9.73V450.95C9.73 447.45 11.27 446.12 13.72 446.12C16.17 446.12 17.71 447.45 17.71 450.95V461.73C17.71 465.23 16.17 466.49 13.72 466.49C11.27 466.49 9.73 465.23 9.73 461.73V457.18H2.45Z" fill="url(#paint6_linear_1612_4848)"/>
<path d="M2.31 531.24C2.31 539.08 6.44 543.56 14 543.56C21.56 543.56 25.69 539.08 25.69 531.24V522.28C25.69 515.07 22.82 511.08 17.15 511.08C13.72 511.08 11.34 512.62 10.01 515.42V506.46C10.01 501.77 11.55 500.44 14.28 500.44C16.73 500.44 18.27 501.77 18.27 505.27V507.02H25.55V505.76C25.55 497.92 21.63 493.44 14.07 493.44C6.09 493.44 2.31 497.92 2.31 506.18V531.24ZM14 518.08C16.45 518.08 17.99 519.41 17.99 522.91V531.73C17.99 535.23 16.45 536.49 14 536.49C11.55 536.49 10.01 535.23 10.01 531.73V522.91C10.01 519.41 11.55 518.08 14 518.08Z" fill="url(#paint7_linear_1612_4848)"/>
<path d="M2.31 564V571H17.64L6.37 613H14.07L25.41 570.72V564H2.31Z" fill="url(#paint8_linear_1612_4848)"/>
<path d="M25.9 671.24V667.39C25.9 662.7 24.5 659.06 21.14 657.17C24.29 655.42 25.9 652.13 25.9 647.3V645.76C25.9 637.92 21.63 633.44 13.86 633.44C6.09 633.44 1.82 637.92 1.82 645.76V647.3C1.82 652.13 3.36 655.42 6.58 657.17C3.22 659.06 1.82 662.7 1.82 667.39V671.24C1.82 679.08 6.09 683.56 13.86 683.56C21.63 683.56 25.9 679.08 25.9 671.24ZM9.52 671.03V666.48C9.52 662.63 11.13 660.95 13.86 660.95C16.59 660.95 18.2 662.63 18.2 666.48V671.03C18.13 675.37 16.31 676.56 13.86 676.56C11.41 676.56 9.52 675.37 9.52 671.03ZM9.52 646.04C9.52 641.63 11.41 640.44 13.86 640.44C16.31 640.44 18.2 641.63 18.2 646.04V648.77C18.2 652.69 16.31 653.95 13.86 653.95C11.34 653.95 9.52 652.69 9.52 648.77V646.04Z" fill="url(#paint9_linear_1612_4848)"/>
<path d="M25.41 715.76C25.41 707.92 21.28 703.44 13.72 703.44C6.16 703.44 2.03 707.92 2.03 715.76V724.72C2.03 731.93 4.9 735.92 10.57 735.92C14 735.92 16.38 734.38 17.71 731.58V740.54C17.71 745.23 16.17 746.56 13.44 746.56C10.99 746.56 9.45 745.23 9.45 741.73V739.98H2.17V741.24C2.17 749.08 6.09 753.56 13.65 753.56C21.63 753.56 25.41 749.08 25.41 740.82V715.76ZM13.72 728.92C11.27 728.92 9.73 727.59 9.73 724.09V715.27C9.73 711.77 11.27 710.51 13.72 710.51C16.17 710.51 17.71 711.77 17.71 715.27V724.09C17.71 727.59 16.17 728.92 13.72 728.92Z" fill="url(#paint10_linear_1612_4848)"/>
<path d="M9.87 785.27C9.87 781.77 11.41 780.44 13.86 780.44C16.31 780.44 17.85 781.77 17.85 785.27V811.73C17.85 815.23 16.31 816.56 13.86 816.56C11.41 816.56 9.87 815.23 9.87 811.73V785.27ZM2.17 811.24C2.17 819.08 6.3 823.56 13.86 823.56C21.42 823.56 25.55 819.08 25.55 811.24V785.76C25.55 777.92 21.42 773.44 13.86 773.44C6.3 773.44 2.17 777.92 2.17 785.76V811.24Z" fill="url(#paint11_linear_1612_4848)"/>
<path d="M7.56 855.62H13.51V893H21.21V844H16.03C14.84 847.29 13.51 850.16 7.56 850.16V855.62Z" fill="url(#paint12_linear_1612_4848)"/>
<path d="M10.3 955.58V963H17.72V955.58H10.3Z" fill="url(#paint13_linear_1612_4848)"/>
<path d="M13.24 1033L11.21 1040H14.36L17.72 1032.23V1025.58H10.3V1033H13.24Z" fill="url(#paint14_linear_1612_4848)"/>
<defs>
<linearGradient id="paint0_linear_1612_4848" x1="14" y1="0" x2="14" y2="70" gradientUnits="userSpaceOnUse">
<stop stop-color="white"/>
<stop offset="1" stop-color="#EBEBEB"/>
</linearGradient>
<linearGradient id="paint1_linear_1612_4848" x1="14" y1="70" x2="14" y2="140" gradientUnits="userSpaceOnUse">
<stop stop-color="white"/>
<stop offset="1" stop-color="#EBEBEB"/>
</linearGradient>
<linearGradient id="paint2_linear_1612_4848" x1="14" y1="140" x2="14" y2="210" gradientUnits="userSpaceOnUse">
<stop stop-color="white"/>
<stop offset="1" stop-color="#EBEBEB"/>
</linearGradient>
<linearGradient id="paint3_linear_1612_4848" x1="14" y1="210" x2="14" y2="280" gradientUnits="userSpaceOnUse">
<stop stop-color="white"/>
<stop offset="1" stop-color="#EBEBEB"/>
</linearGradient>
<linearGradient id="paint4_linear_1612_4848" x1="14" y1="280" x2="14" y2="350" gradientUnits="userSpaceOnUse">
<stop stop-color="white"/>
<stop offset="1" stop-color="#EBEBEB"/>
</linearGradient>
<linearGradient id="paint5_linear_1612_4848" x1="14" y1="350" x2="14" y2="420" gradientUnits="userSpaceOnUse">
<stop stop-color="white"/>
<stop offset="1" stop-color="#EBEBEB"/>
</linearGradient>
<linearGradient id="paint6_linear_1612_4848" x1="14" y1="420" x2="14" y2="490" gradientUnits="userSpaceOnUse">
<stop stop-color="white"/>
<stop offset="1" stop-color="#EBEBEB"/>
</linearGradient>
<linearGradient id="paint7_linear_1612_4848" x1="14" y1="490" x2="14" y2="560" gradientUnits="userSpaceOnUse">
<stop stop-color="white"/>
<stop offset="1" stop-color="#EBEBEB"/>
</linearGradient>
<linearGradient id="paint8_linear_1612_4848" x1="14" y1="560" x2="14" y2="630" gradientUnits="userSpaceOnUse">
<stop stop-color="white"/>
<stop offset="1" stop-color="#EBEBEB"/>
</linearGradient>
<linearGradient id="paint9_linear_1612_4848" x1="14" y1="630" x2="14" y2="700" gradientUnits="userSpaceOnUse">
<stop stop-color="white"/>
<stop offset="1" stop-color="#EBEBEB"/>
</linearGradient>
<linearGradient id="paint10_linear_1612_4848" x1="14" y1="700" x2="14" y2="770" gradientUnits="userSpaceOnUse">
<stop stop-color="white"/>
<stop offset="1" stop-color="#EBEBEB"/>
</linearGradient>
<linearGradient id="paint11_linear_1612_4848" x1="14" y1="770" x2="14" y2="840" gradientUnits="userSpaceOnUse">
<stop stop-color="white"/>
<stop offset="1" stop-color="#EBEBEB"/>
</linearGradient>
<linearGradient id="paint12_linear_1612_4848" x1="14" y1="840" x2="14" y2="910" gradientUnits="userSpaceOnUse">
<stop stop-color="white"/>
<stop offset="1" stop-color="#EBEBEB"/>
</linearGradient>
<linearGradient id="paint13_linear_1612_4848" x1="14" y1="910" x2="14" y2="980" gradientUnits="userSpaceOnUse">
<stop stop-color="white"/>
<stop offset="1" stop-color="#EBEBEB"/>
</linearGradient>
<linearGradient id="paint14_linear_1612_4848" x1="14" y1="980" x2="14" y2="1050" gradientUnits="userSpaceOnUse">
<stop stop-color="white"/>
<stop offset="1" stop-color="#EBEBEB"/>
</linearGradient>
</defs>
</svg>
