<svg width="28" height="1050" viewBox="0 0 28 1050" fill="none" xmlns="http://www.w3.org/2000/svg">
<path d="M25.41 40.82C25.41 44.9733 24.4533 48.1467 22.54 50.34C20.6267 52.4867 17.6633 53.56 13.65 53.56C9.87 53.56 7 52.51 5.04 50.41C3.12667 48.2633 2.17 45.2067 2.17 41.24V39.98H9.45V41.73C9.45 43.5033 9.8 44.7633 10.5 45.51C11.2467 46.21 12.2267 46.56 13.44 46.56C14.7933 46.56 15.8433 46.14 16.59 45.3C17.3367 44.46 17.71 42.8733 17.71 40.54V31.58C16.3567 34.4733 13.9767 35.92 10.57 35.92C7.72333 35.92 5.57667 34.9633 4.13 33.05C2.73 31.1367 2.03 28.36 2.03 24.72V15.76C2.03 11.7933 3.03333 8.76 5.04 6.66C7.04667 4.51333 9.94 3.44 13.72 3.44C17.5 3.44 20.3933 4.51333 22.4 6.66C24.4067 8.76 25.41 11.7933 25.41 15.76V40.82ZM13.72 28.92C14.9333 28.92 15.89 28.57 16.59 27.87C17.3367 27.1233 17.71 25.8633 17.71 24.09V15.27C17.71 13.4967 17.3367 12.26 16.59 11.56C15.89 10.86 14.9333 10.51 13.72 10.51C12.5067 10.51 11.5267 10.86 10.78 11.56C10.08 12.26 9.73 13.4967 9.73 15.27V24.09C9.73 25.8633 10.08 27.1233 10.78 27.87C11.5267 28.57 12.5067 28.92 13.72 28.92Z" fill="url(#paint0_linear_772_4686)"/>
<path d="M9.87 111.73C9.87 113.503 10.22 114.763 10.92 115.51C11.6667 116.21 12.6467 116.56 13.86 116.56C15.0733 116.56 16.03 116.21 16.73 115.51C17.4767 114.763 17.85 113.503 17.85 111.73V85.27C17.85 83.4967 17.4767 82.26 16.73 81.56C16.03 80.8133 15.0733 80.44 13.86 80.44C12.6467 80.44 11.6667 80.8133 10.92 81.56C10.22 82.26 9.87 83.4967 9.87 85.27V111.73ZM2.17 85.76C2.17 81.7933 3.17333 78.76 5.18 76.66C7.18667 74.5133 10.08 73.44 13.86 73.44C17.64 73.44 20.5333 74.5133 22.54 76.66C24.5467 78.76 25.55 81.7933 25.55 85.76V111.24C25.55 115.207 24.5467 118.263 22.54 120.41C20.5333 122.51 17.64 123.56 13.86 123.56C10.08 123.56 7.18667 122.51 5.18 120.41C3.17333 118.263 2.17 115.207 2.17 111.24V85.76Z" fill="url(#paint1_linear_772_4686)"/>
<path d="M7.56 150.16C9.05333 150.16 10.2667 149.997 11.2 149.67C12.18 149.343 12.9733 148.9 13.58 148.34C14.1867 147.78 14.6767 147.127 15.05 146.38C15.4233 145.633 15.75 144.84 16.03 144H21.21V193H13.51V155.62H7.56V150.16Z" fill="url(#paint2_linear_772_4686)"/>
<path d="M18.06 226.04C18.06 223.847 17.6867 222.377 16.94 221.63C16.24 220.837 15.2833 220.44 14.07 220.44C12.8567 220.44 11.8767 220.813 11.13 221.56C10.43 222.26 10.08 223.497 10.08 225.27V230.52H2.8V225.76C2.8 221.793 3.75667 218.76 5.67 216.66C7.63 214.513 10.5 213.44 14.28 213.44C18.06 213.44 20.9067 214.513 22.82 216.66C24.78 218.76 25.76 221.793 25.76 225.76C25.76 228.327 25.3867 230.66 24.64 232.76C23.8933 234.813 22.9367 236.703 21.77 238.43C20.65 240.11 19.4133 241.673 18.06 243.12C16.7533 244.567 15.5167 245.943 14.35 247.25C13.23 248.557 12.2967 249.84 11.55 251.1C10.8033 252.313 10.43 253.597 10.43 254.95C10.43 255.417 10.4533 255.767 10.5 256H25.06V263H2.8V256.98C2.8 254.6 3.17333 252.5 3.92 250.68C4.66667 248.86 5.6 247.203 6.72 245.71C7.88667 244.17 9.12333 242.747 10.43 241.44C11.7367 240.087 12.95 238.663 14.07 237.17C15.2367 235.677 16.1933 234.043 16.94 232.27C17.6867 230.497 18.06 228.42 18.06 226.04Z" fill="url(#paint3_linear_772_4686)"/>
<path d="M17.64 296.04C17.64 293.847 17.2667 292.377 16.52 291.63C15.82 290.837 14.8633 290.44 13.65 290.44C12.4367 290.44 11.4567 290.813 10.71 291.56C10.01 292.26 9.66 293.497 9.66 295.27V298.42H2.38V295.76C2.38 291.793 3.33667 288.76 5.25 286.66C7.21 284.513 10.08 283.44 13.86 283.44C17.64 283.44 20.4867 284.513 22.4 286.66C24.36 288.76 25.34 291.793 25.34 295.76V297.02C25.34 302.247 23.5433 305.607 19.95 307.1C21.91 307.94 23.2867 309.247 24.08 311.02C24.92 312.747 25.34 314.87 25.34 317.39V321.24C25.34 325.207 24.36 328.263 22.4 330.41C20.4867 332.51 17.64 333.56 13.86 333.56C10.08 333.56 7.21 332.51 5.25 330.41C3.33667 328.263 2.38 325.207 2.38 321.24V317.18H9.66V321.73C9.66 323.503 10.01 324.763 10.71 325.51C11.4567 326.21 12.4367 326.56 13.65 326.56C14.8633 326.56 15.82 326.187 16.52 325.44C17.2667 324.693 17.64 323.223 17.64 321.03V317.18C17.64 314.893 17.2433 313.283 16.45 312.35C15.6567 311.417 14.3733 310.95 12.6 310.95H10.01V303.95H13.02C14.4667 303.95 15.5867 303.577 16.38 302.83C17.22 302.083 17.64 300.73 17.64 298.77V296.04Z" fill="url(#paint4_linear_772_4686)"/>
<path d="M0.98 387.11L14.98 354H23.38V387.11H27.02V394.11H23.38V403H15.82V394.11H0.98V387.11ZM15.82 387.11V368.7L8.05 387.11H15.82Z" fill="url(#paint5_linear_772_4686)"/>
<path d="M9.73 457.18V461.73C9.73 463.503 10.08 464.74 10.78 465.44C11.5267 466.14 12.5067 466.49 13.72 466.49C14.9333 466.49 15.89 466.14 16.59 465.44C17.3367 464.74 17.71 463.503 17.71 461.73V450.95C17.71 449.177 17.3367 447.94 16.59 447.24C15.89 446.493 14.9333 446.12 13.72 446.12C12.5067 446.12 11.5267 446.493 10.78 447.24C10.08 447.94 9.73 449.177 9.73 450.95V452.42H2.45L3.85 424H24.15V431H10.78L10.15 442.69C11.5967 440.31 13.8367 439.12 16.87 439.12C19.7167 439.12 21.84 440.077 23.24 441.99C24.6867 443.903 25.41 446.68 25.41 450.32V461.24C25.41 465.207 24.43 468.263 22.47 470.41C20.5567 472.51 17.71 473.56 13.93 473.56C10.15 473.56 7.28 472.51 5.32 470.41C3.40667 468.263 2.45 465.207 2.45 461.24V457.18H9.73Z" fill="url(#paint6_linear_772_4686)"/>
<path d="M2.31 506.18C2.31 502.027 3.26667 498.877 5.18 496.73C7.09333 494.537 10.0567 493.44 14.07 493.44C17.85 493.44 20.6967 494.513 22.61 496.66C24.57 498.76 25.55 501.793 25.55 505.76V507.02H18.27V505.27C18.27 503.497 17.8967 502.26 17.15 501.56C16.45 500.813 15.4933 500.44 14.28 500.44C12.9267 500.44 11.8767 500.86 11.13 501.7C10.3833 502.54 10.01 504.127 10.01 506.46V515.42C11.3633 512.527 13.7433 511.08 17.15 511.08C19.9967 511.08 22.12 512.037 23.52 513.95C24.9667 515.863 25.69 518.64 25.69 522.28V531.24C25.69 535.207 24.6867 538.263 22.68 540.41C20.6733 542.51 17.78 543.56 14 543.56C10.22 543.56 7.32667 542.51 5.32 540.41C3.31333 538.263 2.31 535.207 2.31 531.24V506.18ZM14 518.08C12.7867 518.08 11.8067 518.453 11.06 519.2C10.36 519.9 10.01 521.137 10.01 522.91V531.73C10.01 533.503 10.36 534.74 11.06 535.44C11.8067 536.14 12.7867 536.49 14 536.49C15.2133 536.49 16.17 536.14 16.87 535.44C17.6167 534.74 17.99 533.503 17.99 531.73V522.91C17.99 521.137 17.6167 519.9 16.87 519.2C16.17 518.453 15.2133 518.08 14 518.08Z" fill="url(#paint7_linear_772_4686)"/>
<path d="M25.41 564V570.72L14.07 613H6.37L17.64 571H2.31V564H25.41Z" fill="url(#paint8_linear_772_4686)"/>
<path d="M25.9 671.24C25.9 675.207 24.8733 678.263 22.82 680.41C20.7667 682.51 17.78 683.56 13.86 683.56C9.94 683.56 6.95333 682.51 4.9 680.41C2.84667 678.263 1.82 675.207 1.82 671.24V667.39C1.82 665.01 2.19333 662.957 2.94 661.23C3.68667 659.457 4.9 658.103 6.58 657.17C3.40667 655.443 1.82 652.153 1.82 647.3V645.76C1.82 641.793 2.84667 638.76 4.9 636.66C6.95333 634.513 9.94 633.44 13.86 633.44C17.78 633.44 20.7667 634.513 22.82 636.66C24.8733 638.76 25.9 641.793 25.9 645.76V647.3C25.9 652.107 24.3133 655.397 21.14 657.17C22.82 658.103 24.0333 659.457 24.78 661.23C25.5267 662.957 25.9 665.01 25.9 667.39V671.24ZM9.52 671.03C9.52 673.223 9.94 674.693 10.78 675.44C11.62 676.187 12.6467 676.56 13.86 676.56C15.0733 676.56 16.0767 676.187 16.87 675.44C17.71 674.693 18.1533 673.223 18.2 671.03V666.48C18.2 664.52 17.8033 663.12 17.01 662.28C16.2633 661.393 15.2133 660.95 13.86 660.95C12.5067 660.95 11.4333 661.393 10.64 662.28C9.89333 663.12 9.52 664.52 9.52 666.48V671.03ZM9.52 648.77C9.52 650.73 9.91667 652.083 10.71 652.83C11.55 653.577 12.6 653.95 13.86 653.95C15.0733 653.95 16.1 653.577 16.94 652.83C17.78 652.083 18.2 650.73 18.2 648.77V646.04C18.2 643.847 17.78 642.377 16.94 641.63C16.1 640.837 15.0733 640.44 13.86 640.44C12.6467 640.44 11.62 640.837 10.78 641.63C9.94 642.377 9.52 643.847 9.52 646.04V648.77Z" fill="url(#paint9_linear_772_4686)"/>
<path d="M25.41 740.82C25.41 744.973 24.4533 748.147 22.54 750.34C20.6267 752.487 17.6633 753.56 13.65 753.56C9.87 753.56 7 752.51 5.04 750.41C3.12667 748.263 2.17 745.207 2.17 741.24V739.98H9.45V741.73C9.45 743.503 9.8 744.763 10.5 745.51C11.2467 746.21 12.2267 746.56 13.44 746.56C14.7933 746.56 15.8433 746.14 16.59 745.3C17.3367 744.46 17.71 742.873 17.71 740.54V731.58C16.3567 734.473 13.9767 735.92 10.57 735.92C7.72333 735.92 5.57667 734.963 4.13 733.05C2.73 731.137 2.03 728.36 2.03 724.72V715.76C2.03 711.793 3.03333 708.76 5.04 706.66C7.04667 704.513 9.94 703.44 13.72 703.44C17.5 703.44 20.3933 704.513 22.4 706.66C24.4067 708.76 25.41 711.793 25.41 715.76V740.82ZM13.72 728.92C14.9333 728.92 15.89 728.57 16.59 727.87C17.3367 727.123 17.71 725.863 17.71 724.09V715.27C17.71 713.497 17.3367 712.26 16.59 711.56C15.89 710.86 14.9333 710.51 13.72 710.51C12.5067 710.51 11.5267 710.86 10.78 711.56C10.08 712.26 9.73 713.497 9.73 715.27V724.09C9.73 725.863 10.08 727.123 10.78 727.87C11.5267 728.57 12.5067 728.92 13.72 728.92Z" fill="url(#paint10_linear_772_4686)"/>
<path d="M9.87 811.73C9.87 813.503 10.22 814.763 10.92 815.51C11.6667 816.21 12.6467 816.56 13.86 816.56C15.0733 816.56 16.03 816.21 16.73 815.51C17.4767 814.763 17.85 813.503 17.85 811.73V785.27C17.85 783.497 17.4767 782.26 16.73 781.56C16.03 780.813 15.0733 780.44 13.86 780.44C12.6467 780.44 11.6667 780.813 10.92 781.56C10.22 782.26 9.87 783.497 9.87 785.27V811.73ZM2.17 785.76C2.17 781.793 3.17333 778.76 5.18 776.66C7.18667 774.513 10.08 773.44 13.86 773.44C17.64 773.44 20.5333 774.513 22.54 776.66C24.5467 778.76 25.55 781.793 25.55 785.76V811.24C25.55 815.207 24.5467 818.263 22.54 820.41C20.5333 822.51 17.64 823.56 13.86 823.56C10.08 823.56 7.18667 822.51 5.18 820.41C3.17333 818.263 2.17 815.207 2.17 811.24V785.76Z" fill="url(#paint11_linear_772_4686)"/>
<path d="M7.56 850.16C9.05333 850.16 10.2667 849.997 11.2 849.67C12.18 849.343 12.9733 848.9 13.58 848.34C14.1867 847.78 14.6767 847.127 15.05 846.38C15.4233 845.633 15.75 844.84 16.03 844H21.21V893H13.51V855.62H7.56V850.16Z" fill="url(#paint12_linear_772_4686)"/>
<path d="M17.72 955.58V963H10.3V955.58H17.72Z" fill="url(#paint13_linear_772_4686)"/>
<path d="M10.3 1033V1025.58H17.72V1032.23L14.36 1040H11.21L13.24 1033H10.3Z" fill="url(#paint14_linear_772_4686)"/>
<defs>
<linearGradient id="paint0_linear_772_4686" x1="14" y1="0" x2="14" y2="70" gradientUnits="userSpaceOnUse">
<stop stop-color="#F5AA18"/>
<stop offset="1" stop-color="#A54F00"/>
</linearGradient>
<linearGradient id="paint1_linear_772_4686" x1="14" y1="70" x2="14" y2="140" gradientUnits="userSpaceOnUse">
<stop stop-color="#F5AA18"/>
<stop offset="1" stop-color="#A54F00"/>
</linearGradient>
<linearGradient id="paint2_linear_772_4686" x1="14" y1="140" x2="14" y2="210" gradientUnits="userSpaceOnUse">
<stop stop-color="#F5AA18"/>
<stop offset="1" stop-color="#A54F00"/>
</linearGradient>
<linearGradient id="paint3_linear_772_4686" x1="14" y1="210" x2="14" y2="280" gradientUnits="userSpaceOnUse">
<stop stop-color="#F5AA18"/>
<stop offset="1" stop-color="#A54F00"/>
</linearGradient>
<linearGradient id="paint4_linear_772_4686" x1="14" y1="280" x2="14" y2="350" gradientUnits="userSpaceOnUse">
<stop stop-color="#F5AA18"/>
<stop offset="1" stop-color="#A54F00"/>
</linearGradient>
<linearGradient id="paint5_linear_772_4686" x1="14" y1="350" x2="14" y2="420" gradientUnits="userSpaceOnUse">
<stop stop-color="#F5AA18"/>
<stop offset="1" stop-color="#A54F00"/>
</linearGradient>
<linearGradient id="paint6_linear_772_4686" x1="14" y1="420" x2="14" y2="490" gradientUnits="userSpaceOnUse">
<stop stop-color="#F5AA18"/>
<stop offset="1" stop-color="#A54F00"/>
</linearGradient>
<linearGradient id="paint7_linear_772_4686" x1="14" y1="490" x2="14" y2="560" gradientUnits="userSpaceOnUse">
<stop stop-color="#F5AA18"/>
<stop offset="1" stop-color="#A54F00"/>
</linearGradient>
<linearGradient id="paint8_linear_772_4686" x1="14" y1="560" x2="14" y2="630" gradientUnits="userSpaceOnUse">
<stop stop-color="#F5AA18"/>
<stop offset="1" stop-color="#A54F00"/>
</linearGradient>
<linearGradient id="paint9_linear_772_4686" x1="14" y1="630" x2="14" y2="700" gradientUnits="userSpaceOnUse">
<stop stop-color="#F5AA18"/>
<stop offset="1" stop-color="#A54F00"/>
</linearGradient>
<linearGradient id="paint10_linear_772_4686" x1="14" y1="700" x2="14" y2="770" gradientUnits="userSpaceOnUse">
<stop stop-color="#F5AA18"/>
<stop offset="1" stop-color="#A54F00"/>
</linearGradient>
<linearGradient id="paint11_linear_772_4686" x1="14" y1="770" x2="14" y2="840" gradientUnits="userSpaceOnUse">
<stop stop-color="#F5AA18"/>
<stop offset="1" stop-color="#A54F00"/>
</linearGradient>
<linearGradient id="paint12_linear_772_4686" x1="14" y1="840" x2="14" y2="910" gradientUnits="userSpaceOnUse">
<stop stop-color="#F5AA18"/>
<stop offset="1" stop-color="#A54F00"/>
</linearGradient>
<linearGradient id="paint13_linear_772_4686" x1="14" y1="910" x2="14" y2="980" gradientUnits="userSpaceOnUse">
<stop stop-color="#F5AA18"/>
<stop offset="1" stop-color="#A54F00"/>
</linearGradient>
<linearGradient id="paint14_linear_772_4686" x1="14" y1="980" x2="14" y2="1050" gradientUnits="userSpaceOnUse">
<stop stop-color="#F5AA18"/>
<stop offset="1" stop-color="#A54F00"/>
</linearGradient>
</defs>
</svg>
