<svg width="94" height="49" viewBox="0 0 94 49" fill="none" xmlns="http://www.w3.org/2000/svg">
<path d="M18.37 49H26.28L15.57 21.84L26.28 -3.33786e-06H18.58L8.5 21.35V-3.33786e-06H0.8V49H8.5V33.95L10.88 29.47L18.37 49ZM53.7244 49C52.9544 47.18 52.8844 45.43 52.8844 43.05V35.49C52.8844 30.38 51.6244 26.67 47.7744 25.06C51.2044 23.45 52.8144 20.16 52.8144 15.12V11.27C52.8144 3.71 49.3844 -3.33786e-06 41.4044 -3.33786e-06H29.7844V49H37.4844V29.05H40.1444C43.6444 29.05 45.1844 30.73 45.1844 35.28V42.98C45.1844 46.97 45.4644 47.74 45.8844 49H53.7244ZM41.1944 7C43.9244 7 45.1144 8.54 45.1144 12.04V16.87C45.1144 20.79 43.3644 22.05 40.4944 22.05H37.4844V7H41.1944ZM77.8284 49H88.0484L93.5084 -3.33786e-06H86.7884L82.7984 38.92L78.9484 -3.33786e-06H71.5284L67.8184 38.64L63.6884 -3.33786e-06H56.1984L61.6584 49H72.2284L75.0284 22.89L77.8284 49Z" fill="url(#paint0_linear_1612_4882)"/>
<defs>
<linearGradient id="paint0_linear_1612_4882" x1="46.5" y1="-4" x2="46.5" y2="66" gradientUnits="userSpaceOnUse">
<stop stop-color="white"/>
<stop offset="1" stop-color="#EBEBEB"/>
</linearGradient>
</defs>
</svg>
