<svg width="55" height="50" viewBox="0 0 55 50" fill="none" xmlns="http://www.w3.org/2000/svg">
<path d="M55 17.0284V22.8019H48.3228L47.6148 26.8086H54.9722V32.5821H46.5043L43.2143 50H34.4687L31.2481 32.5821H23.8213L20.6007 50H11.5636L8.23195 32.5821H0V26.8086H7.1214L6.39955 22.8019H0V17.0284H5.31676L2.09616 0H10.0366L12.813 17.0284H20.6007L23.9324 0H31.9283L35.024 17.0284H42.4091L45.1022 0H52.6678L49.4472 17.0284H55ZM14.4649 26.7668H18.8099L19.5596 22.7602H13.8263L14.4649 26.7668ZM15.8531 34.9193C16.1439 36.7604 16.3016 38.6202 16.3251 40.4841H16.4917C16.5992 38.5867 16.8405 36.6992 17.2135 34.8358L17.6161 32.5682H15.4505L15.8531 34.9193ZM24.8624 26.7668H30.1514L29.4712 22.8019H25.6537L24.8624 26.7668ZM27.4722 10.9071C27.3483 12.9625 27.0886 15.0074 26.6949 17.0284H28.3607C27.9632 15.0229 27.7127 12.9909 27.6111 10.9488L27.4722 10.9071ZM36.662 26.7668H40.7294L41.4096 22.7602H36.0651L36.662 26.7668ZM38.2168 35.2254C38.3834 36.1297 38.5639 37.8408 38.7582 40.3868H38.8693C38.9525 38.8008 39.133 37.0061 39.4106 35.0167L39.841 32.5403H37.8004L38.2168 35.2254Z" fill="url(#paint0_linear_772_4702)"/>
<defs>
<linearGradient id="paint0_linear_772_4702" x1="27.5" y1="0" x2="27.5" y2="50" gradientUnits="userSpaceOnUse">
<stop stop-color="#F5AA18"/>
<stop offset="1" stop-color="#A54F00"/>
</linearGradient>
</defs>
</svg>
